# xmcd CD database file
#
# Track frame offsets:
#	150
#	15577
#	25467
#	40340
#	58577
#	69737
#	91045
#	104287
#	120100
#	135482
#	152727
#	165165
#
# Disc length: 2391 seconds
#
# Revision: 0
# Processed by: cddbd v1.5.2PL0 Copyright (c) Steve Scherf et al.
# Submitted via: CDex 2.02
#
DISCID=8909550c
DTITLE=Dave Plaehn and Jeff Hino - Dave Plaehn and Jeff Hino
DYEAR=1996
DGENRE=Blues
TTITLE0=Rollin' and Tumblin'
TTITLE1=Walkin' By Myself
TTITLE2=Wild About My Lovin'
TTITLE3=She Thinks I Still Care
TTITLE4=On A Monday
TTITLE5=You're Gonna Need Somebody On Your Bond
TTITLE6=Shake Your Money Maker
TTITLE7=Dust My Broom
TTITLE8=Letter From My Baby
TTITLE9=Come On In My Kitchen
TTITLE10=Look Over Yonder's Wall
TTITLE11=Not Fade Away
EXTD=YEAR: 1996
EXTT0=
EXTT1=
EXTT2=
EXTT3=
EXTT4=
EXTT5=
EXTT6=
EXTT7=
EXTT8=
EXTT9=
EXTT10=
EXTT11=
PLAYORDER=
